<?xml version="1.0" encoding="iso-8859-1"?>
<!-- Uploaded to: SVG Repo, www.svgrepo.com, Generator: SVG Repo Mixer Tools -->
<svg height="800px" width="800px" version="1.1" id="Layer_1" xmlns="http://www.w3.org/2000/svg" xmlns:xlink="http://www.w3.org/1999/xlink" 
	 viewBox="0 0 512 512" xml:space="preserve">
<g transform="translate(-1 -1)">
	<path style="fill:#FDD7AD;" d="M292.31,36.31c-9.746,0-17.655-7.91-17.655-17.655V1H257h-17.655v17.655
		c0,9.746-7.901,17.655-17.655,17.655c-61.793,0-79.484,14.892-79.484,35.31c0,8.457,16.817,26.386,26.518,35.31
		c22.298-15.89,64.689-12.606,88.276,26.483c23.587-39.089,65.977-42.372,88.276-26.483c9.71-8.925,26.518-26.854,26.518-35.31
		C371.794,51.202,354.103,36.31,292.31,36.31"/>
	<path style="fill:#955BA5;" d="M318.793,248.172v-35.31c0,0,26.483-26.483,26.483-105.931
		c-22.298-15.89-64.689-12.606-88.276,26.483c-23.587-39.089-65.977-42.372-88.276-26.483c0,79.448,26.483,105.931,26.483,105.931
		v35.31c-73.154,67.469-55.764,164.917-35.31,247.172c0,0,52.966,17.655,97.103,17.655s97.103-17.655,97.103-17.655
		C374.557,413.089,391.947,315.642,318.793,248.172"/>
	<path style="fill:#D25627;" d="M265.708,265.828h-17.417c-4.943,0-8.942-4.008-8.942-8.951v-52.718
		c0-4.943,3.999-8.951,8.942-8.951h17.417c4.943,0,8.951,4.008,8.951,8.951v52.718C274.66,261.82,270.652,265.828,265.708,265.828"
		/>
	<g>
		<polygon style="fill:#F0C419;" points="195.207,248.174 239.345,248.174 239.345,212.864 195.207,212.864 		"/>
		<polygon style="fill:#F0C419;" points="274.655,248.174 318.793,248.174 318.793,212.864 274.655,212.864 		"/>
	</g>
	<g>
		<path style="fill:#955BA5;" d="M318.313,37.431c-0.018,0.141-0.097,0.247-0.106,0.388l-3.814,60.16
			c0,0.026,0.009,0.035,0.009,0.062c6.065-0.097,11.9,0.733,17.276,2.366c0.097-0.45,0.309-0.839,0.335-1.306l3.752-59.171
			C330.636,38.87,324.819,38.032,318.313,37.431"/>
		<path style="fill:#955BA5;" d="M181.983,99.104c0.026,0.468,0.238,0.856,0.335,1.298c5.376-1.624,11.22-2.454,17.276-2.366
			c0-0.018,0.009-0.035,0.009-0.053l-3.814-60.16c-0.009-0.141-0.088-0.256-0.106-0.388c-6.506,0.6-12.314,1.43-17.452,2.489
			L181.983,99.104z"/>
	</g>
</g>
</svg>