<?xml version="1.0" encoding="iso-8859-1"?>
<!-- Uploaded to: SVG Repo, www.svgrepo.com, Generator: SVG Repo Mixer Tools -->
<svg height="800px" width="800px" version="1.1" id="Layer_1" xmlns="http://www.w3.org/2000/svg" xmlns:xlink="http://www.w3.org/1999/xlink" 
	 viewBox="0 0 512 512" xml:space="preserve">
<path style="fill:#D7EBFF;" d="M84.979,244.87h342.044c-3.692-8.017-15.481-30.884-16.946-33.391
	c-32.002-54.831-30.56-132.926,4.511-185.522c3.413-5.12,3.739-11.707,0.826-17.141C412.511,3.391,406.847,0,400.696,0h-77.913
	c-9.217,0-16.696,7.479-16.696,16.696c0,27.619-22.468,50.087-50.087,50.087s-50.087-22.468-50.087-50.087
	C205.913,7.479,198.435,0,189.217,0h-77.913c-6.152,0-11.815,3.391-14.718,8.815C93.674,14.25,94,20.837,97.412,25.956
	c35.071,52.595,36.513,130.691,4.511,185.522C100.459,213.986,88.669,236.852,84.979,244.87z"/>
<path style="fill:#BDDEFF;" d="M427.021,244.87c-3.692-8.017-15.481-30.884-16.946-33.391
	c-32.002-54.831-30.56-132.926,4.511-185.522c3.413-5.12,3.739-11.707,0.826-17.141C412.511,3.391,406.847,0,400.696,0h-77.913
	c-9.217,0-16.696,7.479-16.696,16.696c0,27.619-22.468,50.087-50.087,50.087V244.87H427.021z"/>
<path style="fill:#FF80AB;" d="M427.021,244.87c-3.692-8.017-15.481-30.884-16.946-33.391H101.924
	c-1.465,2.508-13.254,25.374-16.946,33.391c-39.23,85.191-57.151,163.507-57.151,250.435c0,9.217,7.479,16.696,16.696,16.696
	h422.957c9.217,0,16.696-7.479,16.696-16.696C484.174,408.377,466.253,330.061,427.021,244.87z"/>
<g>
	<path style="fill:#F26C9A;" d="M410.076,211.478H256V512h211.478c9.217,0,16.696-7.479,16.696-16.696
		c0-86.928-17.921-165.244-57.153-250.435C423.33,236.852,411.541,213.986,410.076,211.478z"/>
	<path style="fill:#F26C9A;" d="M161.391,211.478v83.478c0,9.217,7.479,16.696,16.696,16.696s16.696-7.479,16.696-16.696v-83.478
		H161.391z"/>
</g>
<path style="fill:#D95782;" d="M317.217,211.478v83.478c0,9.217,7.479,16.696,16.696,16.696c9.217,0,16.696-7.479,16.696-16.696
	v-83.478H317.217z"/>
<path style="fill:#F26C9A;" d="M239.304,211.478v83.478c0,9.217,7.479,16.696,16.696,16.696s16.696-7.479,16.696-16.696v-83.478
	H239.304z"/>
<path style="fill:#D95782;" d="M256,311.652c9.217,0,16.696-7.479,16.696-16.696v-83.478H256V311.652z"/>
</svg>